<?xml version="1.0" encoding="utf-8"?>
<!-- Generator: Adobe Illustrator 17.0.0, SVG Export Plug-In . SVG Version: 6.00 Build 0)  -->
<!DOCTYPE svg PUBLIC "-//W3C//DTD SVG 1.1//EN" "http://www.w3.org/Graphics/SVG/1.1/DTD/svg11.dtd">
<svg version="1.1" id="Calque_1" xmlns="http://www.w3.org/2000/svg" xmlns:xlink="http://www.w3.org/1999/xlink" x="0px" y="0px"
	 width="100px" height="110px" viewBox="0 0 100 110" enable-background="new 0 0 100 110" xml:space="preserve">
<g>
	<polyline fill="none" stroke="#000000" stroke-miterlimit="10" points="15,1.151 15,100.404 75.503,109.83 74.783,6.873 15,1.151 	
		"/>
	<polyline fill="none" stroke="#000000" stroke-miterlimit="10" points="44.369,6.459 17.064,3.805 17.075,50.751 	"/>
	<polyline fill="none" stroke="#000000" stroke-miterlimit="10" points="44.699,102.476 73.249,106.881 72.918,57.764 	"/>
	<polyline fill="none" stroke="#000000" stroke-miterlimit="10" points="44.699,102.476 17.086,98.216 17.075,50.751 	"/>
	<polyline fill="none" stroke="#000000" stroke-miterlimit="10" points="44.369,6.459 72.591,9.202 72.918,57.764 	"/>
	<line fill="none" stroke="#000000" stroke-miterlimit="10" x1="44.369" y1="6.459" x2="44.533" y2="54.199"/>
	<line fill="none" stroke="#000000" stroke-miterlimit="10" x1="44.533" y1="54.199" x2="44.699" y2="102.476"/>
	<line fill="none" stroke="#000000" stroke-miterlimit="10" x1="44.533" y1="54.199" x2="17.075" y2="50.751"/>
	<line fill="none" stroke="#000000" stroke-miterlimit="10" x1="44.533" y1="54.199" x2="72.918" y2="57.764"/>
	<line fill="none" stroke="#000000" stroke-miterlimit="10" x1="73.407" y1="57.826" x2="72.918" y2="57.764"/>
	<line fill="none" stroke="#000000" stroke-miterlimit="10" x1="85" y1="1.151" x2="15" y2="1.151"/>
	<line fill="none" stroke="#000000" stroke-miterlimit="10" x1="85" y1="0.625" x2="85" y2="1.151"/>
	<line fill="none" stroke="#000000" stroke-miterlimit="10" x1="85" y1="1.151" x2="85" y2="101.151"/>
	<line fill="none" stroke="#000000" stroke-miterlimit="10" x1="85" y1="101.151" x2="85" y2="101.641"/>
	<line fill="none" stroke="#000000" stroke-miterlimit="10" x1="85" y1="101.151" x2="75.503" y2="101.151"/>
</g>
</svg>
